<svg width="62" height="33" viewBox="0 0 62 33" fill="none" xmlns="http://www.w3.org/2000/svg">
<path d="M2.3125 15.4766C2.40625 13.5078 2.55469 11.6406 2.75781 9.875C2.75781 9.875 2.90625 8.57031 3.20312 5.96094C3.3125 5.11719 3.40625 4.25781 3.48438 3.38281C6.84375 2.44531 10.3125 1.85938 13.8906 1.625L17.2891 15.6875L18.3906 26.7266L19.3984 26.6328L21.5781 3.33594C23.7969 2.55469 26.4844 2 29.6406 1.67188C30.6094 1.57812 31.5156 1.53125 32.3594 1.53125L35.3125 16.1562L37.4219 31.9531L31.3516 32.5859L29.5 16.6953L27.9531 6.54688L26.5234 6.73438L25.5625 16.9297L23.2891 31.3203C20.6016 31.8203 17.6328 32.1094 14.3828 32.1875L9.48438 6.85156L7.9375 7.08594L7.75 16.4844L6.34375 32.4453L0.484375 31.7188L2.3125 15.4766ZM52.4219 14.9609C55.625 15.1641 58.5703 15.5938 61.2578 16.25L59.4297 32.1406C58.2578 32.3125 57.0859 32.3984 55.9141 32.3984C54.7578 32.3984 53.5547 32.3203 52.3047 32.1641C51.0547 32.0234 49.8906 31.8438 48.8125 31.625C46.625 31.1875 45.2188 30.7969 44.5938 30.4531C43.9844 30.1094 43.5547 29.8047 43.3047 29.5391C43.0703 29.2578 42.8906 28.8281 42.7656 28.25C42.6406 27.6562 42.5078 26.9531 42.3672 26.1406C42.2266 25.3125 42.1016 24.4141 41.9922 23.4453C41.7422 21.2266 41.6172 19.4375 41.6172 18.0781C41.6172 16.7031 41.625 15.6484 41.6406 14.9141C41.6562 14.1641 41.6875 13.4297 41.7344 12.7109C41.8906 9.82031 42.0781 8.03906 42.2969 7.36719C42.5156 6.69531 42.7188 6.17969 42.9062 5.82031C43.0938 5.44531 43.3594 5.15625 43.7031 4.95312C45.0312 4.1875 47.4688 3.36719 51.0156 2.49219L53.4766 1.90625C55.6172 1.40625 57.5703 1.02344 59.3359 0.757812L60.5781 6.40625C60.125 6.5 59.5469 6.60938 58.8438 6.73438L54.0391 7.53125C50.9766 8.03125 49.0469 8.41406 48.25 8.67969C47.7969 10.4609 47.5703 13.0391 47.5703 16.4141C47.5703 20.8672 47.8438 24.1562 48.3906 26.2812C50.2344 26.9531 52.1328 27.2891 54.0859 27.2891H54.5312C54.6719 27.2891 54.7969 27.2734 54.9062 27.2422L55.5859 20.1875L51.8359 20L52.4219 14.9609Z" fill="url(#paint0_linear)"/>
<defs>
<linearGradient id="paint0_linear" x1="-2" y1="46" x2="64" y2="-11" gradientUnits="userSpaceOnUse">
<stop stop-color="#02D2E2"/>
<stop offset="1" stop-color="#4F61BA"/>
</linearGradient>
</defs>
</svg>
